mtllib part_27.mtl
usemtl part_27

v 0.1275 0.018905052185058595 0.19093724060058595
v 0.11950000000000001 0.018905052185058595 0.19093724060058595
v 0.11950000000000001 0.017487045288085937 0.1879869384765625
v 0.11950000000000001 0.014 0.19675
v 0.11950000000000001 0.017 0.18475
v 0.12016605377197266 0.019306888580322267 0.19675
v 0.11950000000000001 0.019306888580322267 0.19675
v 0.1275 0.01903066635131836 0.19275430297851562
v 0.1275 0.022037824630737304 0.19275430297851562
v 0.1275 0.021527864456176757 0.18945228576660156
v 0.1275 0.02183711051940918 0.18985086059570314
v 0.11975000000000001 0.02183711051940918 0.18985086059570314
v 0.1275 0.02039154815673828 0.1872221374511719
v 0.1135 0.02039154815673828 0.1872221374511719
v 0.1135 0.021527864456176757 0.18945228576660156
v 0.1135 0.008 0.19675
v 0.12016605377197266 0.008 0.19675
v 0.1135 0.008 0.15781304931640625
v 0.1465 0.008 0.15781304931640625
v 0.14400000000000002 0.014 0.15781304931640625
v 0.1465 0.014 0.15781304931640625
v 0.1485 0.008 0.15981304931640625
v 0.14400000000000002 0.014 0.17681304931640626
v 0.14400000000000002 0.0145 0.17681304931640626
v 0.14400000000000002 0.0145 0.15781304931640625
v 0.133 0.014 0.15781304931640625
v 0.11950000000000001 0.03566051864624024 0.15781304931640625
v 0.1135 0.048 0.15781304931640625
v 0.14400000000000002 0.042 0.15781304931640625
v 0.1465 0.048 0.15781304931640625
v 0.1465 0.042 0.15781304931640625
v 0.14400000000000002 0.0415 0.15781304931640625
v 0.14400000000000002 0.042 0.17681304931640626
v 0.14400000000000002 0.0415 0.17681304931640626
v 0.14250000000000002 0.04 0.17681304931640626
v 0.133 0.04 0.15781304931640625
v 0.14250000000000002 0.04 0.15781304931640625
v 0.133 0.04 0.17681304931640626
v 0.133 0.042 0.15781304931640625
v 0.11950000000000001 0.042 0.15781304931640625
v 0.133 0.042 0.17681304931640626
v 0.12016605377197266 0.042 0.19675
v 0.11950000000000001 0.042 0.19675
v 0.11975000000000001 0.032653358459472655 0.15781304931640625
v 0.1275 0.03566051864624024 0.15781304931640625
v 0.1275 0.032653358459472655 0.15781304931640625
v 0.11975000000000001 0.023346641540527343 0.15781304931640625
v 0.11975000000000001 0.03416289138793945 0.1796491394042969
v 0.1275 0.03709494781494141 0.17856275939941407
v 0.1275 0.03416289138793945 0.1796491394042969
v 0.11950000000000001 0.03709494781494141 0.17856275939941407
v 0.1485 0.042 0.15981304931640625
v 0.1485 0.042 0.17931304931640626
v 0.1485 0.048 0.15981304931640625
v 0.1485 0.048 0.17931304931640626
v 0.14674374389648437 0.042 0.1822698974609375
v 0.14674374389648437 0.048 0.1822698974609375
v 0.12016605377197266 0.048 0.19675
v 0.1135 0.048 0.19675
v 0.11950000000000001 0.03669311141967774 0.19675
v 0.14674374389648437 0.008 0.1822698974609375
v 0.11950000000000001 0.020339481353759768 0.15781304931640625
v 0.11950000000000001 0.014 0.15781304931640625
v 0.1275 0.020339481353759768 0.15781304931640625
v 0.1275 0.023346641540527343 0.15781304931640625
v 0.1275 0.018905052185058595 0.17856275939941407
v 0.11975000000000001 0.02183711051940918 0.1796491394042969
v 0.1275 0.02183711051940918 0.1796491394042969
v 0.11975000000000001 0.023297718048095703 0.17827786254882813
v 0.1135 0.023297718048095703 0.17827786254882813
v 0.1135 0.021527864456176757 0.18004771423339844
v 0.133 0.016 0.15781304931640625
v 0.14250000000000002 0.016 0.15781304931640625
v 0.14250000000000002 0.016 0.17681304931640626
v 0.133 0.016 0.17681304931640626
v 0.133 0.014 0.17681304931640626
v 0.12016605377197266 0.014 0.19675
v 0.14674374389648437 0.014 0.1822698974609375
v 0.1485 0.014 0.17931304931640626
v 0.1485 0.014 0.15981304931640625
v 0.1485 0.008 0.17931304931640626
v 0.11975000000000001 0.022314048767089843 0.19675
v 0.12016605377197266 0.022314048767089843 0.19675
v 0.11975000000000001 0.033685951232910155 0.19675
v 0.11975000000000001 0.025527864456176757 0.19235845947265626
v 0.11975000000000001 0.028 0.19275
v 0.11975000000000001 0.023297718048095703 0.1912221374511719
v 0.1135 0.023297718048095703 0.1912221374511719
v 0.1135 0.025527864456176757 0.19235845947265626
v 0.1135 0.028 0.19275
v 0.12016605377197266 0.03669311141967774 0.19675
v 0.12016605377197266 0.033685951232910155 0.19675
v 0.11950000000000001 0.03709494781494141 0.19093724060058595
v 0.1275 0.03696933364868164 0.19275430297851562
v 0.1275 0.03709494781494141 0.19093724060058595
v 0.11950000000000001 0.038512954711914064 0.1879869384765625
v 0.1275 0.038512954711914064 0.1879869384765625
v 0.1275 0.039 0.18475
v 0.11950000000000001 0.039 0.18475
v 0.1275 0.038512954711914064 0.1815130615234375
v 0.11950000000000001 0.038512954711914064 0.1815130615234375
v 0.1275 0.03560845184326172 0.1872221374511719
v 0.1275 0.03396217346191406 0.19275430297851562
v 0.1275 0.03416289138793945 0.18985086059570314
v 0.1275 0.03447213745117188 0.18945228576660156
v 0.1275 0.036000000000000004 0.18475
v 0.1275 0.03560845184326172 0.18227786254882813
v 0.1135 0.03560845184326172 0.1872221374511719
v 0.1135 0.036000000000000004 0.18475
v 0.1135 0.0327022819519043 0.1912221374511719
v 0.1135 0.030472135543823244 0.19235845947265626
v 0.11975000000000001 0.030472135543823244 0.19235845947265626
v 0.11975000000000001 0.0327022819519043 0.1912221374511719
v 0.11975000000000001 0.03416289138793945 0.18985086059570314
v 0.1135 0.03447213745117188 0.18945228576660156
v 0.1135 0.03560845184326172 0.18227786254882813
v 0.1135 0.03447213745117188 0.18004771423339844
v 0.1135 0.030472135543823244 0.17714154052734377
v 0.1135 0.0327022819519043 0.17827786254882813
v 0.1135 0.028 0.17675
v 0.1135 0.025527864456176757 0.17714154052734377
v 0.11975000000000001 0.025527864456176757 0.17714154052734377
v 0.11975000000000001 0.028 0.17675
v 0.11975000000000001 0.030472135543823244 0.17714154052734377
v 0.11975000000000001 0.0327022819519043 0.17827786254882813
v 0.1275 0.03447213745117188 0.18004771423339844
v 0.1275 0.021527864456176757 0.18004771423339844
v 0.1275 0.02039154815673828 0.18227786254882813
v 0.1135 0.02039154815673828 0.18227786254882813
v 0.1275 0.02 0.18475
v 0.1275 0.017487045288085937 0.1879869384765625
v 0.1135 0.02 0.18475
v 0.1275 0.017 0.18475
v 0.1275 0.017487045288085937 0.1815130615234375
v 0.11950000000000001 0.017487045288085937 0.1815130615234375
v 0.11950000000000001 0.018905052185058595 0.17856275939941407
vn 0.0 -0.901300847530365 0.4331936836242676
vn 1.0 0.0 0.0
vn 1.0 0.0 0.0
vn 0.0 -0.9976190328598022 0.06896551698446274
vn 0.0 -0.9976190328598022 0.06896551698446274
vn 0.0 -0.9976190328598022 0.06896551698446274
vn 1.0 0.0 0.0
vn 1.0 0.0 0.0
vn 1.0 0.0 0.0
vn 0.0 0.9976190328598022 -0.06896551698446274
vn 0.0 0.7900819182395935 -0.6130012273788452
vn 0.0 0.8910065293312073 -0.45399048924446106
vn -1.0 0.0 0.0
vn 0.0 -1.0 0.0
vn 0.0 0.0 -1.0
vn 0.0 0.0 -1.0
vn 0.7071067690849304 0.0 -0.7071067690849304
vn 0.0 1.0 0.0
vn 1.0 0.0 0.0
vn 0.0 0.0 -1.0
vn 0.0 0.0 -1.0
vn 0.0 0.0 -1.0
vn 0.0 0.0 -1.0
vn 0.0 0.0 -1.0
vn 1.0 0.0 0.0
vn 1.0 0.0 0.0
vn 0.7071067690849304 -0.7071067690849304 0.0
vn 0.0 -1.0 0.0
vn 0.0 -1.0 0.0
vn 0.0 0.0 -1.0
vn 0.0 0.0 -1.0
vn 0.7071067690849304 -0.7071067690849304 0.0
vn 0.0 0.0 -1.0
vn 0.0 0.0 -1.0
vn 0.0 0.0 -1.0
vn -1.0 0.0 0.0
vn -1.0 0.0 0.0
vn 0.0 0.0 1.0
vn 0.0 0.0 1.0
vn 0.0 0.0 1.0
vn 0.0 -1.0 0.0
vn 0.0 -1.0 0.0
vn 0.0 0.0 -1.0
vn 0.0 0.0 -1.0
vn 0.0 0.0 -1.0
vn 0.0 0.0 -1.0
vn 0.0 0.0 -1.0
vn 0.0 -0.9976190328598022 0.06896551698446274
vn 1.0 0.0 0.0
vn 1.0 0.0 0.0
vn 0.0 0.9976190328598022 -0.06896551698446274
vn 0.0 0.9976190328598022 -0.06896551698446274
vn 1.0 0.0 0.0
vn 0.0 -1.0 0.0
vn 0.0 -1.0 0.0
vn 0.0 -1.0 0.0
vn 0.0 -1.0 0.0
vn 0.0 -1.0 0.0
vn 1.0 0.0 0.0
vn 1.0 0.0 0.0
vn 0.0 -1.0 0.0
vn 0.0 -1.0 0.0
vn 0.47842368483543396 0.0 0.8781291246414185
vn 0.0 1.0 0.0
vn 0.0 1.0 0.0
vn 0.0 1.0 0.0
vn 0.0 1.0 0.0
vn 0.7071067690849304 0.0 -0.7071067690849304
vn 0.7071067690849304 0.0 -0.7071067690849304
vn 0.8597742915153503 0.0 0.510674238204956
vn 0.8597742915153503 0.0 0.510674238204956
vn 0.47842368483543396 0.0 0.8781291246414185
vn 0.0 0.0 1.0
vn 0.0 1.0 0.0
vn 0.0 0.0 1.0
vn 0.0 0.0 1.0
vn 0.0 0.0 1.0
vn 0.0 0.0 1.0
vn 0.0 -1.0 0.0
vn 0.0 0.0 -1.0
vn 0.0 0.0 -1.0
vn 0.0 0.0 -1.0
vn 0.0 0.0 -1.0
vn 1.0 0.0 0.0
vn 0.0 0.9976190328598022 0.06896551698446274
vn 0.0 0.9976190328598022 0.06896551698446274
vn 0.0 0.6844602227210999 0.7290502190589905
vn -1.0 0.0 0.0
vn 0.0 0.0 -1.0
vn 0.0 0.0 -1.0
vn 0.0 0.0 -1.0
vn 0.7071067690849304 0.7071067690849304 0.0
vn 0.0 1.0 0.0
vn 0.0 1.0 0.0
vn 0.7071067690849304 0.7071067690849304 0.0
vn 1.0 0.0 0.0
vn 0.0 0.0 1.0
vn 0.0 0.0 1.0
vn 0.0 0.0 1.0
vn -1.0 0.0 0.0
vn -1.0 0.0 0.0
vn 0.0 1.0 0.0
vn 0.0 1.0 0.0
vn 0.0 1.0 0.0
vn 0.0 1.0 0.0
vn 0.0 1.0 0.0
vn 0.0 1.0 0.0
vn 0.0 1.0 0.0
vn 0.0 1.0 0.0
vn 1.0 0.0 0.0
vn 1.0 0.0 0.0
vn 0.0 -1.0 0.0
vn 0.0 -1.0 0.0
vn 0.0 -1.0 0.0
vn 0.8597742915153503 0.0 0.510674238204956
vn 0.8597742915153503 0.0 0.510674238204956
vn 0.47842368483543396 0.0 0.8781291246414185
vn 0.47842368483543396 0.0 0.8781291246414185
vn 0.0 0.0 1.0
vn 0.0 0.0 1.0
vn 0.0 0.0 1.0
vn 0.0 0.0 1.0
vn 0.0 0.0 1.0
vn 0.0 0.0 1.0
vn 1.0 0.0 0.0
vn 1.0 0.0 0.0
vn 1.0 0.0 0.0
vn 0.0 0.45399048924446106 -0.8910065293312073
vn -1.0 0.0 0.0
vn -1.0 0.0 0.0
vn 0.0 0.0 1.0
vn 0.0 0.0 1.0
vn 0.0 0.0 1.0
vn 0.0 0.9976190328598022 0.06896551698446274
vn 0.0 0.9976190328598022 0.06896551698446274
vn 0.0 0.9976190328598022 0.06896551698446274
vn 1.0 0.0 0.0
vn 1.0 0.0 0.0
vn 0.0 0.901300847530365 0.4331936836242676
vn 0.0 0.9888688325881958 0.14878985285758972
vn 0.0 0.9888688325881958 -0.14878985285758972
vn 0.0 0.901300847530365 -0.4331936836242676
vn 0.0 0.901300847530365 -0.4331936836242676
vn 1.0 0.0 0.0
vn 1.0 0.0 0.0
vn 0.0 0.9888688325881958 -0.14878985285758972
vn 1.0 0.0 0.0
vn 1.0 0.0 0.0
vn 0.0 0.9888688325881958 0.14878985285758972
vn 0.0 0.901300847530365 0.4331936836242676
vn 1.0 0.0 0.0
vn 1.0 0.0 0.0
vn 1.0 0.0 0.0
vn 1.0 0.0 0.0
vn 1.0 0.0 0.0
vn 1.0 0.0 0.0
vn 1.0 0.0 0.0
vn 1.0 0.0 0.0
vn 1.0 0.0 0.0
vn 0.0 -0.9876883625984192 -0.15643446147441864
vn -1.0 0.0 0.0
vn -1.0 0.0 0.0
vn -1.0 0.0 0.0
vn -1.0 0.0 0.0
vn 0.0 0.15643446147441864 -0.9876883625984192
vn 0.0 0.45399048924446106 -0.8910065293312073
vn 0.0 0.15643446147441864 -0.9876883625984192
vn 0.0 -0.15643446147441864 -0.9876883625984192
vn 0.0 -0.15643446147441864 -0.9876883625984192
vn 0.0 -0.45399048924446106 -0.8910065293312073
vn 0.0 -0.45399048924446106 -0.8910065293312073
vn 0.0 -0.6844602227210999 -0.7290502190589905
vn -1.0 0.0 0.0
vn 0.010106404311954975 -0.7070706486701965 -0.7070706486701965
vn 0.0 -0.9976190328598022 -0.06896551698446274
vn 0.0 -0.9976190328598022 -0.06896551698446274
vn 0.0 -0.9976190328598022 -0.06896551698446274
vn 0.47842368483543396 0.0 0.8781291246414185
vn 0.47842368483543396 0.0 0.8781291246414185
vn 0.0 -0.7900819182395935 -0.6130012273788452
vn 0.0 -0.7900819182395935 -0.6130012273788452
vn 0.0 -0.8910065293312073 -0.45399048924446106
vn -1.0 0.0 0.0
vn 0.0 -0.8910065293312073 -0.45399048924446106
vn 0.0 -0.9876883625984192 -0.15643446147441864
vn 0.0 -0.9876883625984192 0.15643446147441864
vn -1.0 0.0 0.0
vn -1.0 0.0 0.0
vn -1.0 0.0 0.0
vn -1.0 0.0 0.0
vn -1.0 0.0 0.0
vn -1.0 0.0 0.0
vn -1.0 0.0 0.0
vn -1.0 0.0 0.0
vn 0.0 0.45399048924446106 0.8910065293312073
vn 0.0 0.15643446147441864 0.9876883625984192
vn 0.0 0.15643446147441864 0.9876883625984192
vn 0.0 -0.15643446147441864 0.9876883625984192
vn 0.0 -0.15643446147441864 0.9876883625984192
vn 0.0 -0.45399048924446106 0.8910065293312073
vn 0.0 -0.45399048924446106 0.8910065293312073
vn -1.0 0.0 0.0
vn 0.010106404311954975 -0.7070706486701965 0.7070706486701965
vn 0.0 -0.6844602227210999 0.7290502190589905
vn 0.0 -0.7900819182395935 0.6130012273788452
vn 1.0 0.0 0.0
vn 1.0 0.0 0.0
vn 1.0 0.0 0.0
vn 0.0 -0.8910065293312073 0.45399048924446106
vn 0.0 -0.9876883625984192 0.15643446147441864
vn 0.0 -0.8910065293312073 0.45399048924446106
vn 0.0 -0.7900819182395935 0.6130012273788452
vn 0.0 -0.9976190328598022 0.06896551698446274
vn 1.0 0.0 0.0
vn 1.0 0.0 0.0
vn 1.0 0.0 0.0
vn 1.0 0.0 0.0
vn 1.0 0.0 0.0
vn 1.0 0.0 0.0
vn 1.0 0.0 0.0
vn 0.0 0.45399048924446106 0.8910065293312073
vn 0.010106404311954975 0.7070706486701965 0.7070706486701965
vn 0.0 0.7900819182395935 0.6130012273788452
vn 0.0 0.8910065293312073 0.45399048924446106
vn -1.0 0.0 0.0
vn 0.0 0.8910065293312073 0.45399048924446106
vn 0.0 0.9876883625984192 0.15643446147441864
vn -1.0 0.0 0.0
vn -1.0 0.0 0.0
vn 0.010106404311954975 0.7070706486701965 -0.7070706486701965
vn 0.0 0.6844602227210999 -0.7290502190589905
vn 0.0 0.7900819182395935 -0.6130012273788452
vn 0.0 0.9976190328598022 -0.06896551698446274
vn 0.0 0.9976190328598022 -0.06896551698446274
vn 0.47842368483543396 0.0 0.8781291246414185
vn 0.47842368483543396 0.0 0.8781291246414185
vn 1.0 0.0 0.0
vn 1.0 0.0 0.0
vn 1.0 0.0 0.0
vn 1.0 0.0 0.0
vn 0.0 0.8910065293312073 -0.45399048924446106
vn 1.0 0.0 0.0
vn 1.0 0.0 0.0
vn 0.0 0.9876883625984192 -0.15643446147441864
vn -1.0 0.0 0.0
vn -1.0 0.0 0.0
vn 0.0 0.9876883625984192 0.15643446147441864
vn 1.0 0.0 0.0
vn 1.0 0.0 0.0
vn 1.0 0.0 0.0
vn 1.0 0.0 0.0
vn 1.0 0.0 0.0
vn 1.0 0.0 0.0
vn 0.0 0.7900819182395935 0.6130012273788452
vn 1.0 0.0 0.0
vn 1.0 0.0 0.0
vn 0.0 -0.9888688325881958 -0.14878985285758972
vn 0.0 -0.9888688325881958 0.14878985285758972
vn 0.0 -0.901300847530365 0.4331936836242676
vn 0.0 -0.9888688325881958 0.14878985285758972
vn 1.0 0.0 0.0
vn 1.0 0.0 0.0
vn 1.0 0.0 0.0
vn 0.0 -0.9976190328598022 -0.06896551698446274
vn 0.0 -0.9976190328598022 -0.06896551698446274
vn 0.0 -0.901300847530365 -0.4331936836242676
vn 0.0 -0.901300847530365 -0.4331936836242676
vn 1.0 0.0 0.0
vn 0.0 -0.9888688325881958 -0.14878985285758972
vn 1.0 0.0 0.0
vn 0.0 0.9876883625984192 -0.15643446147441864
vn 0.7071067690849304 0.0 -0.7071067690849304
f 1//1 2//1 3//1
f 4//2 5//2 3//2
f 4//3 3//3 2//3
f 6//4 7//4 2//4
f 8//5 6//5 2//5
f 2//6 1//6 8//6
f 9//7 8//7 1//7
f 10//8 11//8 1//8
f 1//9 11//9 9//9
f 9//10 11//10 12//10
f 12//11 11//11 10//11
f 10//12 13//12 14//12
f 15//13 14//13 16//13
f 17//14 16//14 18//14
f 19//15 18//15 20//15
f 20//16 21//16 19//16
f 22//17 19//17 21//17
f 21//18 20//18 23//18
f 24//19 23//19 20//19
f 25//20 20//20 26//20
f 26//21 20//21 18//21
f 27//22 18//22 28//22
f 29//23 28//23 30//23
f 30//24 31//24 29//24
f 32//25 29//25 33//25
f 33//26 34//26 32//26
f 32//27 34//27 35//27
f 36//28 37//28 35//28
f 35//29 38//29 36//29
f 37//30 36//30 39//30
f 39//31 29//31 32//31
f 35//32 37//32 32//32
f 39//33 32//33 37//33
f 39//34 40//34 28//34
f 28//35 29//35 39//35
f 41//36 39//36 36//36
f 36//37 38//37 41//37
f 34//38 33//38 41//38
f 41//39 38//39 35//39
f 41//40 35//40 34//40
f 42//41 43//41 41//41
f 41//42 43//42 40//42
f 28//43 40//43 27//43
f 44//44 27//44 45//44
f 45//45 46//45 44//45
f 44//46 47//46 18//46
f 18//47 27//47 44//47
f 48//48 44//48 46//48
f 49//49 50//49 46//49
f 46//50 45//50 49//50
f 51//51 49//51 45//51
f 45//52 27//52 51//52
f 51//53 27//53 40//53
f 40//54 39//54 41//54
f 42//55 41//55 33//55
f 52//56 53//56 33//56
f 33//57 29//57 31//57
f 33//58 31//58 52//58
f 53//59 52//59 54//59
f 54//60 55//60 53//60
f 33//61 53//61 56//61
f 56//62 42//62 33//62
f 42//63 56//63 57//63
f 28//64 58//64 57//64
f 28//65 57//65 55//65
f 30//66 28//66 55//66
f 55//67 54//67 30//67
f 31//68 30//68 54//68
f 54//69 52//69 31//69
f 55//70 57//70 56//70
f 56//71 53//71 55//71
f 57//72 58//72 42//72
f 43//73 42//73 58//73
f 28//74 59//74 58//74
f 58//75 59//75 43//75
f 60//76 43//76 59//76
f 7//77 59//77 16//77
f 4//78 16//78 17//78
f 61//79 17//79 18//79
f 62//80 63//80 18//80
f 18//81 47//81 62//81
f 64//82 62//82 47//82
f 47//83 65//83 64//83
f 66//84 64//84 65//84
f 67//85 68//85 65//85
f 65//86 47//86 67//86
f 67//87 69//87 70//87
f 71//88 70//88 18//88
f 18//89 63//89 26//89
f 26//90 72//90 73//90
f 26//91 73//91 25//91
f 25//92 73//92 74//92
f 74//93 73//93 72//93
f 72//94 75//94 74//94
f 74//95 24//95 25//95
f 20//96 25//96 24//96
f 76//97 23//97 24//97
f 76//98 24//98 74//98
f 74//99 75//99 76//99
f 26//100 76//100 75//100
f 75//101 72//101 26//101
f 76//102 26//102 63//102
f 63//103 4//103 76//103
f 23//104 76//104 77//104
f 76//105 4//105 77//105
f 23//106 77//106 78//106
f 78//107 79//107 23//107
f 80//108 21//108 23//108
f 23//109 79//109 80//109
f 81//110 22//110 80//110
f 80//111 79//111 81//111
f 19//112 22//112 81//112
f 81//113 18//113 19//113
f 18//114 81//114 61//114
f 78//115 61//115 81//115
f 81//116 79//116 78//116
f 17//117 61//117 78//117
f 78//118 77//118 17//118
f 17//119 77//119 4//119
f 16//120 4//120 7//120
f 82//121 7//121 6//121
f 6//122 83//122 82//122
f 82//123 84//123 59//123
f 59//124 7//124 82//124
f 85//125 86//125 82//125
f 87//126 85//126 82//126
f 82//127 12//127 87//127
f 85//128 87//128 88//128
f 89//129 88//129 16//129
f 90//130 16//130 59//130
f 59//131 84//131 60//131
f 91//132 60//132 84//132
f 84//133 92//133 91//133
f 93//134 60//134 91//134
f 93//135 91//135 94//135
f 94//136 95//136 93//136
f 93//137 96//137 43//137
f 43//138 60//138 93//138
f 93//139 95//139 97//139
f 96//140 97//140 98//140
f 99//141 98//141 100//141
f 101//142 100//142 49//142
f 49//143 51//143 101//143
f 99//144 101//144 40//144
f 40//145 101//145 51//145
f 100//146 101//146 99//146
f 43//147 96//147 99//147
f 40//148 43//148 99//148
f 98//149 99//149 96//149
f 97//150 96//150 93//150
f 102//151 97//151 95//151
f 95//152 94//152 103//152
f 103//153 104//153 95//153
f 95//154 104//154 105//154
f 95//155 105//155 102//155
f 97//156 102//156 106//156
f 106//157 107//157 100//157
f 100//158 98//158 106//158
f 106//159 98//159 97//159
f 106//160 102//160 108//160
f 109//161 108//161 59//161
f 110//162 111//162 59//162
f 59//163 111//163 90//163
f 16//164 90//164 89//164
f 86//165 85//165 89//165
f 88//166 89//166 85//166
f 89//167 90//167 86//167
f 112//168 86//168 90//168
f 90//169 111//169 112//169
f 113//170 112//170 111//170
f 111//171 110//171 113//171
f 114//172 113//172 110//172
f 59//173 115//173 110//173
f 110//174 115//174 114//174
f 92//175 84//175 114//175
f 103//176 92//176 114//176
f 114//177 104//177 103//177
f 103//178 94//178 91//178
f 91//179 92//179 103//179
f 105//180 104//180 114//180
f 114//181 115//181 105//181
f 102//182 105//182 115//182
f 59//183 108//183 115//183
f 115//184 108//184 102//184
f 108//185 109//185 106//185
f 107//186 106//186 109//186
f 116//187 109//187 59//187
f 59//188 28//188 116//188
f 117//189 116//189 28//189
f 118//190 119//190 28//190
f 120//191 118//191 28//191
f 28//192 18//192 120//192
f 121//193 120//193 18//193
f 18//194 70//194 121//194
f 69//195 122//195 121//195
f 120//196 121//196 122//196
f 122//197 123//197 120//197
f 118//198 120//198 123//198
f 123//199 124//199 118//199
f 119//200 118//200 124//200
f 124//201 125//201 119//201
f 28//202 119//202 117//202
f 48//203 117//203 119//203
f 119//204 125//204 48//204
f 48//205 50//205 126//205
f 126//206 50//206 49//206
f 107//207 126//207 49//207
f 49//208 100//208 107//208
f 126//209 107//209 116//209
f 109//210 116//210 107//210
f 116//211 117//211 126//211
f 126//212 117//212 48//212
f 46//213 50//213 48//213
f 44//214 48//214 125//214
f 125//215 124//215 44//215
f 124//216 123//216 44//216
f 47//217 44//217 123//217
f 123//218 122//218 47//218
f 69//219 67//219 47//219
f 47//220 122//220 69//220
f 121//221 70//221 69//221
f 70//222 71//222 67//222
f 67//223 71//223 127//223
f 128//224 127//224 71//224
f 18//225 129//225 71//225
f 71//226 129//226 128//226
f 130//227 128//227 129//227
f 129//228 18//228 16//228
f 16//229 88//229 15//229
f 12//230 15//230 88//230
f 88//231 87//231 12//231
f 10//232 15//232 12//232
f 12//233 82//233 83//233
f 12//234 83//234 9//234
f 9//235 83//235 6//235
f 6//236 8//236 9//236
f 84//237 82//237 86//237
f 86//238 112//238 84//238
f 113//239 114//239 84//239
f 84//240 112//240 113//240
f 14//241 15//241 10//241
f 13//242 10//242 1//242
f 1//243 131//243 13//243
f 13//244 130//244 132//244
f 16//245 14//245 132//245
f 16//246 132//246 129//246
f 129//247 132//247 130//247
f 130//248 13//248 131//248
f 131//249 133//249 130//249
f 130//250 133//250 134//250
f 128//251 134//251 66//251
f 65//252 68//252 66//252
f 66//253 68//253 127//253
f 127//254 68//254 67//254
f 66//255 127//255 128//255
f 134//256 128//256 130//256
f 135//257 134//257 133//257
f 5//258 133//258 131//258
f 3//259 131//259 1//259
f 131//260 3//260 5//260
f 5//261 4//261 63//261
f 136//262 135//262 63//262
f 63//263 62//263 136//263
f 64//264 66//264 136//264
f 136//265 62//265 64//265
f 136//266 66//266 134//266
f 134//267 135//267 136//267
f 63//268 135//268 5//268
f 133//269 5//269 135//269
f 2//270 7//270 4//270
f 132//271 14//271 13//271
f 21//272 80//272 22//272
