mtllib part_26.mtl
usemtl part_26

v 0.16080946350097658 0.014 0.08224734497070313
v 0.16080946350097658 0.014 0.10316367340087891
v 0.16080946350097658 0.0505 0.10316367340087891
v 0.1657020721435547 0.0305 0.10475337982177735
v 0.1657020721435547 0.0505 0.10475337982177735
v 0.17070207214355468 0.0305 0.1063779754638672
v 0.15680946350097658 0.014 0.0835470199584961
v 0.15680946350097658 0.014 0.10606983947753906
v 0.17670207214355468 0.014 0.10832749176025391
v 0.15680946350097658 0.01 0.10606983947753906
v 0.17822993469238282 0.01 0.11302977752685547
v 0.17534463500976563 0.01 0.10645914459228516
v 0.1594520263671875 0.01 0.10129532623291015
v 0.15680946350097658 0.01 0.0835470199584961
v 0.1594520263671875 0.01 0.08458484649658203
v 0.17422993469238282 0.01 0.07788676452636718
v 0.17534463500976563 0.01 0.07942102813720703
v 0.12128650665283204 -0.10246391296386718 0.032054512023925785
v 0.11929992675781251 -0.10831783294677734 0.04603070068359375
v 0.13642030334472657 -0.10469991302490235 0.02584628486633301
v 0.12950601196289063 -0.11812200164794923 0.029939979553222657
v 0.12466370391845703 -0.11740655517578125 0.0319264030456543
v 0.12422132110595703 -0.11871013641357422 0.03503869247436524
v 0.12731798553466797 -0.12001371765136719 0.0355797119140625
v 0.13320596313476563 -0.11417176055908203 0.04846023559570312
v 0.1307035369873047 -0.11929827880859376 0.03158824348449707
v 0.1437869415283203 -0.11193576049804688 0.03598558044433594
v 0.18516680908203126 0.01 0.0929400863647461
v 0.1889963836669922 0.01 0.09821103668212891
v 0.17822993469238282 0.014 0.11302977752685547
v 0.1889963836669922 0.014 0.09821103668212891
v 0.1865242462158203 0.014 0.09480843353271484
v 0.17972587585449218 0.0305 0.08545127105712891
v 0.17422993469238282 0.0505 0.07788676452636718
v 0.17972587585449218 0.0505 0.08545127105712891
v 0.18281604003906252 0.0305 0.08970452880859375
v 0.18281604003906252 0.0505 0.08970452880859375
v 0.1865242462158203 0.0395 0.09480843353271484
v 0.1889963836669922 0.0465 0.09821103668212891
v 0.1889963836669922 0.043500000000000004 0.09821103668212891
v 0.1865242462158203 0.0505 0.09480843353271484
v 0.18060940551757812 0.0465 0.10975471496582032
v 0.18060940551757812 0.043500000000000004 0.10975471496582032
v 0.17670207214355468 0.0395 0.10832749176025391
v 0.17670207214355468 0.0505 0.10832749176025391
v 0.17070207214355468 0.0505 0.1063779754638672
v 0.16080946350097658 0.0505 0.08224734497070313
vn -1.0 0.0 0.0
vn -0.30901700258255005 0.0 0.9510565400123596
vn -0.30901700258255005 0.0 0.9510565400123596
vn -0.30901700258255005 0.0 0.9510565400123596
vn 0.0 1.0 0.0
vn 0.0 1.0 0.0
vn 0.0 1.0 0.0
vn -0.30901700258255005 0.0 0.9510565400123596
vn 0.0 -1.0 0.0
vn 0.0 -1.0 0.0
vn 0.0 -1.0 0.0
vn 0.0 -1.0 0.0
vn -0.9469578862190247 0.32135769724845886 0.0
vn -0.9469578862190247 0.32135769724845886 0.0
vn -0.27086931467056274 0.48130807280540466 -0.8336500525474548
vn -0.3883991837501526 -0.07991194725036621 -0.918019711971283
vn -0.3883991837501526 -0.07991194725036621 -0.918019711971283
vn -0.950938880443573 -0.21299868822097778 -0.22438094019889832
vn -0.950938880443573 -0.21299868822097778 -0.22438094019889832
vn -0.4065019190311432 -0.7477702498435974 0.5249722599983215
vn -0.4065019190311432 -0.7477702498435974 0.5249722599983215
vn -0.29389262199401855 -0.8660253882408142 -0.404508501291275
vn -0.29389262199401855 -0.8660253882408142 -0.404508501291275
vn -0.29389262199401855 -0.8660253882408142 -0.404508501291275
vn 0.4270220696926117 -0.880856990814209 0.20431138575077057
vn -0.2926260828971863 -0.32135769724845886 0.9006104469299316
vn -0.2926260828971863 -0.32135769724845886 0.9006104469299316
vn 0.0 -1.0 0.0
vn 0.0 -1.0 0.0
vn 0.7091450691223145 -0.48130807280540466 0.515224039554596
vn 0.4270220696926117 -0.880856990814209 0.20431138575077057
vn 0.5101205110549927 -0.4803844690322876 -0.7134478092193604
vn 0.5101205110549927 -0.4803844690322876 -0.7134478092193604
vn 0.7091450691223145 -0.48130807280540466 0.515224039554596
vn 0.0 -1.0 0.0
vn 0.0 -1.0 0.0
vn -0.30901700258255005 0.0 0.9510565400123596
vn 0.0 1.0 0.0
vn 0.0 1.0 0.0
vn 0.80901700258255 0.0 -0.5877852439880371
vn 0.80901700258255 0.0 -0.5877852439880371
vn 0.80901700258255 0.0 -0.5877852439880371
vn 0.80901700258255 0.0 -0.5877852439880371
vn 0.80901700258255 0.0 -0.5877852439880371
vn 0.80901700258255 0.0 -0.5877852439880371
vn 0.80901700258255 0.0 -0.5877852439880371
vn 0.80901700258255 0.0 -0.5877852439880371
vn 0.80901700258255 0.0 -0.5877852439880371
vn 0.80901700258255 0.0 -0.5877852439880371
vn 0.80901700258255 0.0 -0.5877852439880371
vn 0.80901700258255 0.0 -0.5877852439880371
vn 0.80901700258255 0.0 -0.5877852439880371
vn 0.80901700258255 0.0 0.5877852439880371
vn 0.80901700258255 0.0 0.5877852439880371
vn 0.5720614194869995 -0.7071067690849304 0.4156269431114197
vn 0.5720614194869995 -0.7071067690849304 0.4156269431114197
vn 0.80901700258255 0.0 -0.5877852439880371
vn 0.80901700258255 0.0 -0.5877852439880371
vn 0.0 1.0 0.0
vn 0.80901700258255 0.0 0.5877852439880371
vn 0.80901700258255 0.0 0.5877852439880371
vn -0.34309622645378113 0.0 0.9393002390861511
vn -0.34309622645378113 0.0 0.9393002390861511
vn 0.5720614194869995 0.7071067690849304 0.4156269431114197
vn 0.5720614194869995 0.7071067690849304 0.4156269431114197
vn -0.30901700258255005 0.0 0.9510565400123596
vn -0.30901700258255005 0.0 0.9510565400123596
vn -0.30901700258255005 0.0 0.9510565400123596
vn -0.30901700258255005 0.0 0.9510565400123596
vn -0.80901700258255 0.0 -0.5877852439880371
vn -0.80901700258255 0.0 -0.5877852439880371
vn 0.0 1.0 0.0
vn 0.0 1.0 0.0
vn 0.0 1.0 0.0
vn 0.0 1.0 0.0
vn 0.80901700258255 0.0 0.5877852439880371
vn 0.80901700258255 0.0 0.5877852439880371
vn 0.0 1.0 0.0
vn 0.0 1.0 0.0
vn 0.0 1.0 0.0
vn -0.30901700258255005 0.0 -0.9510565400123596
vn -0.30901700258255005 0.0 -0.9510565400123596
vn -0.30901700258255005 0.0 -0.9510565400123596
vn -1.0 0.0 0.0
vn -1.0 0.0 0.0
vn -0.30901700258255005 0.0 -0.9510565400123596
vn -1.0 0.0 0.0
vn 0.80901700258255 0.0 0.5877852439880371
vn 0.80901700258255 0.0 0.5877852439880371
vn -0.27086931467056274 0.48130807280540466 -0.8336500525474548
f 1//1 2//1 3//1
f 4//2 5//2 3//2
f 3//3 2//3 4//3
f 6//4 4//4 2//4
f 2//5 1//5 7//5
f 7//6 8//6 2//6
f 9//7 2//7 8//7
f 8//8 10//8 11//8
f 12//9 11//9 10//9
f 13//10 10//10 14//10
f 15//11 14//11 16//11
f 16//12 17//12 15//12
f 15//13 18//13 19//13
f 19//14 13//14 15//14
f 15//15 17//15 20//15
f 18//16 20//16 21//16
f 21//17 22//17 18//17
f 23//18 19//18 18//18
f 18//19 22//19 23//19
f 23//20 24//20 25//20
f 25//21 19//21 23//21
f 24//22 23//22 22//22
f 26//23 24//23 22//23
f 22//24 21//24 26//24
f 26//25 27//25 25//25
f 13//26 19//26 25//26
f 25//27 12//27 13//27
f 14//28 15//28 13//28
f 10//29 13//29 12//29
f 28//30 12//30 25//30
f 25//31 24//31 26//31
f 27//32 26//32 21//32
f 21//33 20//33 27//33
f 25//34 27//34 28//34
f 12//35 28//35 29//35
f 29//36 11//36 12//36
f 11//37 30//37 8//37
f 8//38 30//38 9//38
f 9//39 30//39 31//39
f 32//40 31//40 29//40
f 29//41 28//41 32//41
f 17//42 32//42 28//42
f 17//43 28//43 27//43
f 27//44 20//44 17//44
f 17//45 16//45 33//45
f 33//46 16//46 34//46
f 34//47 35//47 33//47
f 17//48 33//48 36//48
f 36//49 37//49 38//49
f 39//50 40//50 38//50
f 38//51 37//51 41//51
f 38//52 41//52 39//52
f 40//53 39//53 42//53
f 42//54 43//54 40//54
f 40//55 43//55 44//55
f 44//56 38//56 40//56
f 38//57 32//57 36//57
f 36//58 32//58 17//58
f 31//59 32//59 9//59
f 44//60 9//60 32//60
f 32//61 38//61 44//61
f 42//62 45//62 44//62
f 44//63 43//63 42//63
f 45//64 42//64 39//64
f 39//65 41//65 45//65
f 44//66 45//66 46//66
f 46//67 6//67 44//67
f 6//68 9//68 44//68
f 2//69 9//69 6//69
f 37//70 36//70 6//70
f 6//71 46//71 37//71
f 45//72 41//72 37//72
f 37//73 46//73 45//73
f 4//74 6//74 36//74
f 36//75 33//75 4//75
f 5//76 4//76 33//76
f 33//77 35//77 5//77
f 34//78 47//78 5//78
f 47//79 3//79 5//79
f 5//80 35//80 34//80
f 1//81 47//81 34//81
f 34//82 16//82 1//82
f 1//83 16//83 14//83
f 7//84 14//84 10//84
f 10//85 8//85 7//85
f 14//86 7//86 1//86
f 3//87 47//87 1//87
f 29//88 31//88 30//88
f 30//89 11//89 29//89
f 20//90 18//90 15//90
