mtllib part_20.mtl
usemtl part_20

v 0.127 0.028 -0.03875
v 0.124682373046875 0.020867076873779297 -0.03875
v 0.12259161376953125 0.021932373046875002 -0.03875
v 0.12259161376953125 0.021932373046875002 -0.03775
v 0.124682373046875 0.020867076873779297 -0.03775
v 0.127 0.0205 -0.03875
v 0.127 0.0205 -0.03775
v 0.12931762695312501 0.020867076873779297 -0.03875
v 0.12931762695312501 0.020867076873779297 -0.03775
v 0.13140838623046874 0.021932373046875002 -0.03875
v 0.133 0.0235 -0.03775
v 0.13140838623046874 0.021932373046875002 -0.03775
v 0.133067626953125 0.023591609954833986 -0.03875
v 0.133 0.0235 -0.03375
v 0.1309857940673828 -0.00033679887652397154 -0.03375
v 0.1309857940673828 -0.00033679887652397154 -0.03775
v 0.1307122802734375 -0.001489619255065918 -0.03375
v 0.1307122802734375 -0.001489619255065918 -0.03775
v 0.13011306762695313 -0.0025117437839508056 -0.03375
v 0.13011306762695313 -0.0025117437839508056 -0.03775
v 0.12924070739746094 -0.0033134934902191164 -0.03375
v 0.12924070739746094 -0.0033134934902191164 -0.03775
v 0.1281717529296875 -0.0038245244026184084 -0.03375
v 0.1281717529296875 -0.0038245244026184084 -0.03775
v 0.127 -0.004 -0.03375
v 0.127 -0.004 -0.03775
v 0.1258282470703125 -0.0038245244026184084 -0.03375
v 0.1258282470703125 -0.0038245244026184084 -0.03775
v 0.12475929260253907 -0.0033134934902191164 -0.03375
v 0.12475929260253907 -0.0033134934902191164 -0.03775
v 0.12388694000244141 -0.0025117437839508056 -0.03375
v 0.12388694000244141 -0.0025117437839508056 -0.03775
v 0.12328771972656251 -0.001489619255065918 -0.03375
v 0.12328771972656251 -0.001489619255065918 -0.03775
v 0.1230142059326172 -0.00033679887652397154 -0.03375
v 0.1230142059326172 -0.00033679887652397154 -0.03775
v 0.121 0.0235 -0.03375
v 0.121 0.0235 -0.03775
v 0.120932373046875 0.023591609954833986 -0.03875
v 0.13413291931152344 0.025682373046875002 -0.03875
v 0.1345 0.028 -0.03875
v 0.13413291931152344 0.030317626953125 -0.03875
v 0.133067626953125 0.03240839004516602 -0.03875
v 0.13140838623046874 0.034067626953125 -0.03875
v 0.12931762695312501 0.035132923126220704 -0.03875
v 0.127 0.035500000000000004 -0.03875
v 0.124682373046875 0.035132923126220704 -0.03875
v 0.12259161376953125 0.034067626953125 -0.03875
v 0.120932373046875 0.03240839004516602 -0.03875
v 0.11986707305908204 0.030317626953125 -0.03875
v 0.11950000000000001 0.028 -0.03875
v 0.11986707305908204 0.025682373046875002 -0.03875
v 0.11986707305908204 0.025682373046875002 -0.02875
v 0.120932373046875 0.023591609954833986 -0.02875
v 0.12259161376953125 0.021932373046875002 -0.03375
v 0.124682373046875 0.020867076873779297 -0.03375
v 0.12259161376953125 0.021932373046875002 -0.02875
v 0.124682373046875 0.020867076873779297 -0.02875
v 0.127 0.028 -0.02875
v 0.127 0.0205 -0.02875
v 0.12931762695312501 0.020867076873779297 -0.02875
v 0.11950000000000001 0.028 -0.02875
v 0.11986707305908204 0.030317626953125 -0.02875
v 0.120932373046875 0.03240839004516602 -0.02875
v 0.12259161376953125 0.034067626953125 -0.02875
v 0.124682373046875 0.035132923126220704 -0.02875
v 0.127 0.035500000000000004 -0.02875
v 0.12931762695312501 0.035132923126220704 -0.02875
v 0.13140838623046874 0.034067626953125 -0.02875
v 0.133067626953125 0.03240839004516602 -0.02875
v 0.13413291931152344 0.030317626953125 -0.02875
v 0.1345 0.028 -0.02875
v 0.13413291931152344 0.025682373046875002 -0.02875
v 0.133067626953125 0.023591609954833986 -0.02875
v 0.13140838623046874 0.021932373046875002 -0.02875
v 0.13140838623046874 0.021932373046875002 -0.03375
v 0.12931762695312501 0.020867076873779297 -0.03375
v 0.127 0.0205 -0.03375
vn 0.0 0.0 -1.0
vn -0.45399048924446106 -0.8910065293312073 0.0
vn -0.15643446147441864 -0.9876883625984192 0.0
vn 0.15643446147441864 -0.9876883625984192 0.0
vn 0.45399048924446106 -0.8910065293312073 0.0
vn 0.7017186284065247 -0.7124541997909546 0.0
vn 0.7070051431655884 -0.7070051431655884 -0.016956210136413574
vn 0.9964488744735718 -0.08419971913099289 0.0
vn 0.9729897975921631 -0.23084807395935059 0.0
vn 0.8626813888549805 -0.5057477951049805 0.0
vn 0.6766831874847412 -0.7362743020057678 0.0
vn 0.43131428956985474 -0.9022017121315002 0.0
vn 0.14810283482074738 -0.9889719486236572 0.0
vn -0.14810283482074738 -0.9889719486236572 0.0
vn -0.43131428956985474 -0.9022017121315002 0.0
vn -0.6766831874847412 -0.7362743020057678 0.0
vn -0.8626813888549805 -0.5057477951049805 0.0
vn -0.9729897975921631 -0.23084807395935059 0.0
vn -0.9729897975921631 -0.23084807395935059 0.0
vn -0.8626813888549805 -0.5057477951049805 0.0
vn -0.6766831874847412 -0.7362743020057678 0.0
vn -0.43131428956985474 -0.9022017121315002 0.0
vn -0.14810283482074738 -0.9889719486236572 0.0
vn 0.14810283482074738 -0.9889719486236572 0.0
vn 0.43131428956985474 -0.9022017121315002 0.0
vn 0.6766831874847412 -0.7362743020057678 0.0
vn 0.8626813888549805 -0.5057477951049805 0.0
vn 0.9729897975921631 -0.23084807395935059 0.0
vn 0.9964488744735718 -0.08419971913099289 0.0
vn 0.0 0.0 -1.0
vn 0.0 0.0 -1.0
vn 0.45399048924446106 -0.8910065293312073 0.0
vn 0.0 0.0 -1.0
vn 0.0 0.0 -1.0
vn 0.0 0.0 -1.0
vn 0.0 0.0 -1.0
vn 0.0 0.0 -1.0
vn 0.0 0.0 -1.0
vn 0.0 0.0 -1.0
vn 0.0 0.0 -1.0
vn 0.0 0.0 -1.0
vn 0.0 0.0 -1.0
vn 0.0 0.0 -1.0
vn 0.0 0.0 -1.0
vn -0.9964488744735718 -0.08419971913099289 0.0
vn -0.9964488744735718 -0.08419971913099289 0.0
vn 0.0 0.0 -1.0
vn 0.0 0.0 -1.0
vn -0.7017186284065247 -0.7124541997909546 0.0
vn -0.7070051431655884 -0.7070051431655884 -0.016956210136413574
vn 0.0 0.0 -1.0
vn 0.0 0.0 -1.0
vn 0.0 0.0 -1.0
vn 0.0 0.0 -1.0
vn 0.0 0.0 -1.0
vn 0.0 0.0 -1.0
vn 0.0 0.0 -1.0
vn 0.0 0.0 -1.0
vn 0.0 0.0 -1.0
vn 0.0 0.0 -1.0
vn 0.0 0.0 -1.0
vn 0.0 0.0 -1.0
vn 0.0 0.0 -1.0
vn 0.0 0.0 -1.0
vn 0.0 0.0 -1.0
vn 0.0 0.0 -1.0
vn 0.0 0.0 -1.0
vn 0.0 0.0 -1.0
vn 0.0 0.0 -1.0
vn -0.8910065293312073 -0.45399048924446106 0.0
vn -0.8045316934585571 -0.593909740447998 0.0
vn -0.8045316934585571 -0.593909740447998 0.0
vn 0.0 0.0 1.0
vn 0.0 0.0 1.0
vn -0.7017186284065247 -0.7124541997909546 0.0
vn 0.0 0.0 1.0
vn 0.0 0.0 1.0
vn 0.0 0.0 1.0
vn 0.0 0.0 1.0
vn 0.0 0.0 1.0
vn 0.0 0.0 1.0
vn 0.0 0.0 1.0
vn 0.0 0.0 1.0
vn 0.0 0.0 1.0
vn 0.0 0.0 1.0
vn 0.0 0.0 1.0
vn 0.0 0.0 1.0
vn 0.0 0.0 1.0
vn 0.0 0.0 1.0
vn 0.0 0.0 1.0
vn 0.0 0.0 1.0
vn 0.0 0.0 1.0
vn 0.0 0.0 1.0
vn 0.0 0.0 1.0
vn 0.0 0.0 1.0
vn 0.7071027159690857 -0.7071027159690857 0.0033917101100087166
vn 0.7017186284065247 -0.7124541997909546 0.0
vn 0.0 0.0 1.0
vn 0.0 0.0 1.0
vn 0.0 0.0 1.0
vn 0.0 0.0 1.0
vn 0.0 0.0 1.0
vn 0.0 0.0 1.0
vn 0.0 0.0 1.0
vn 0.0 0.0 1.0
vn 0.0 0.0 1.0
vn 0.0 0.0 1.0
vn 0.0 0.0 1.0
vn 0.0 0.0 1.0
vn 0.0 0.0 1.0
vn 0.0 0.0 1.0
vn -0.45399048924446106 -0.8910065293312073 0.0
vn -0.15643446147441864 -0.9876883625984192 0.0
vn 0.15643446147441864 -0.9876883625984192 0.0
vn 0.45399048924446106 -0.8910065293312073 0.0
vn 0.45399048924446106 -0.8910065293312073 0.0
vn 0.15643446147441864 -0.9876883625984192 0.0
vn -0.15643446147441864 -0.9876883625984192 0.0
vn -0.45399048924446106 -0.8910065293312073 0.0
vn -0.7071027159690857 -0.7071027159690857 0.0033917101100087166
vn -0.8910065293312073 -0.45399048924446106 0.0
vn -0.9876883625984192 -0.15643446147441864 0.0
vn -0.9876883625984192 -0.15643446147441864 0.0
vn -0.9876883625984192 0.15643446147441864 0.0
vn -0.9876883625984192 0.15643446147441864 0.0
vn -0.8910065293312073 0.45399048924446106 0.0
vn -0.8910065293312073 0.45399048924446106 0.0
vn -0.7071067690849304 0.7071067690849304 0.0
vn -0.7071067690849304 0.7071067690849304 0.0
vn -0.45399048924446106 0.8910065293312073 0.0
vn -0.45399048924446106 0.8910065293312073 0.0
vn -0.15643446147441864 0.9876883625984192 0.0
vn -0.15643446147441864 0.9876883625984192 0.0
vn 0.15643446147441864 0.9876883625984192 0.0
vn 0.15643446147441864 0.9876883625984192 0.0
vn 0.45399048924446106 0.8910065293312073 0.0
vn 0.45399048924446106 0.8910065293312073 0.0
vn 0.7071067690849304 0.7071067690849304 0.0
vn 0.7071067690849304 0.7071067690849304 0.0
vn 0.8910065293312073 0.45399048924446106 0.0
vn 0.8910065293312073 0.45399048924446106 0.0
vn 0.9876883625984192 0.15643446147441864 0.0
vn 0.9876883625984192 0.15643446147441864 0.0
vn 0.9876883625984192 -0.15643446147441864 0.0
vn 0.9876883625984192 -0.15643446147441864 0.0
vn 0.8910065293312073 -0.45399048924446106 0.0
vn 0.8910065293312073 -0.45399048924446106 0.0
vn 0.8045316934585571 -0.593909740447998 0.0
vn 0.8045316934585571 -0.593909740447998 0.0
vn 0.15643446147441864 -0.9876883625984192 0.0
vn -0.15643446147441864 -0.9876883625984192 0.0
vn -0.45399048924446106 -0.8910065293312073 0.0
f 1//1 2//1 3//1
f 4//2 3//2 2//2
f 5//3 2//3 6//3
f 7//4 6//4 8//4
f 9//5 8//5 10//5
f 11//6 12//6 10//6
f 10//7 13//7 11//7
f 11//8 14//8 15//8
f 16//9 15//9 17//9
f 18//10 17//10 19//10
f 20//11 19//11 21//11
f 22//12 21//12 23//12
f 24//13 23//13 25//13
f 26//14 25//14 27//14
f 28//15 27//15 29//15
f 30//16 29//16 31//16
f 32//17 31//17 33//17
f 34//18 33//18 35//18
f 35//19 36//19 34//19
f 33//20 34//20 32//20
f 31//21 32//21 30//21
f 29//22 30//22 28//22
f 27//23 28//23 26//23
f 25//24 26//24 24//24
f 23//25 24//25 22//25
f 21//26 22//26 20//26
f 19//27 20//27 18//27
f 17//28 18//28 16//28
f 15//29 16//29 11//29
f 12//30 11//30 16//30
f 16//31 9//31 12//31
f 10//32 12//32 9//32
f 7//33 9//33 16//33
f 16//34 18//34 7//34
f 36//35 5//35 7//35
f 24//36 26//36 7//36
f 7//37 26//37 28//37
f 7//38 28//38 30//38
f 30//39 32//39 7//39
f 18//40 20//40 7//40
f 7//41 20//41 22//41
f 7//42 22//42 24//42
f 7//43 32//43 34//43
f 7//44 34//44 36//44
f 36//45 35//45 37//45
f 37//46 38//46 36//46
f 4//47 5//47 36//47
f 36//48 38//48 4//48
f 3//49 4//49 38//49
f 38//50 39//50 3//50
f 3//51 39//51 1//51
f 6//52 2//52 1//52
f 8//53 6//53 1//53
f 10//54 8//54 1//54
f 13//55 10//55 1//55
f 40//56 13//56 1//56
f 41//57 40//57 1//57
f 42//58 41//58 1//58
f 43//59 42//59 1//59
f 44//60 43//60 1//60
f 45//61 44//61 1//61
f 46//62 45//62 1//62
f 47//63 46//63 1//63
f 48//64 47//64 1//64
f 49//65 48//65 1//65
f 50//66 49//66 1//66
f 51//67 50//67 1//67
f 52//68 51//68 1//68
f 39//69 52//69 1//69
f 53//70 52//70 39//70
f 37//71 54//71 39//71
f 39//72 38//72 37//72
f 55//73 37//73 35//73
f 35//74 56//74 55//74
f 37//75 55//75 57//75
f 57//76 58//76 59//76
f 60//77 61//77 59//77
f 58//78 60//78 59//78
f 54//79 57//79 59//79
f 53//80 54//80 59//80
f 62//81 53//81 59//81
f 63//82 62//82 59//82
f 64//83 63//83 59//83
f 65//84 64//84 59//84
f 66//85 65//85 59//85
f 67//86 66//86 59//86
f 68//87 67//87 59//87
f 69//88 68//88 59//88
f 70//89 69//89 59//89
f 71//90 70//90 59//90
f 72//91 71//91 59//91
f 73//92 72//92 59//92
f 74//93 73//93 59//93
f 75//94 74//94 59//94
f 59//95 61//95 75//95
f 14//96 74//96 75//96
f 75//97 76//97 14//97
f 15//98 14//98 76//98
f 76//99 77//99 15//99
f 15//100 77//100 78//100
f 27//101 25//101 78//101
f 21//102 19//102 78//102
f 29//103 27//103 78//103
f 23//104 21//104 78//104
f 78//105 19//105 17//105
f 78//106 17//106 15//106
f 33//107 31//107 78//107
f 78//108 25//108 23//108
f 35//109 33//109 78//109
f 78//110 31//110 29//110
f 78//111 56//111 35//111
f 57//112 55//112 56//112
f 58//113 56//113 78//113
f 60//114 78//114 77//114
f 61//115 77//115 76//115
f 76//116 75//116 61//116
f 77//117 61//117 60//117
f 78//118 60//118 58//118
f 56//119 58//119 57//119
f 57//120 54//120 37//120
f 39//121 54//121 53//121
f 52//122 53//122 62//122
f 62//123 51//123 52//123
f 63//124 50//124 51//124
f 51//125 62//125 63//125
f 50//126 63//126 64//126
f 64//127 49//127 50//127
f 65//128 48//128 49//128
f 49//129 64//129 65//129
f 48//130 65//130 66//130
f 66//131 47//131 48//131
f 67//132 46//132 47//132
f 47//133 66//133 67//133
f 46//134 67//134 68//134
f 68//135 45//135 46//135
f 69//136 44//136 45//136
f 45//137 68//137 69//137
f 44//138 69//138 70//138
f 70//139 43//139 44//139
f 71//140 42//140 43//140
f 43//141 70//141 71//141
f 42//142 71//142 72//142
f 72//143 41//143 42//143
f 73//144 40//144 41//144
f 41//145 72//145 73//145
f 40//146 73//146 74//146
f 74//147 13//147 40//147
f 14//148 11//148 13//148
f 13//149 74//149 14//149
f 8//150 9//150 7//150
f 6//151 7//151 5//151
f 2//152 5//152 4//152
